<?xml version="1.0" encoding="utf-8"?>
<!-- Generator: Adobe Illustrator 18.1.0, SVG Export Plug-In . SVG Version: 6.00 Build 0)  -->
<svg version="1.1" id="Logo" xmlns="http://www.w3.org/2000/svg" xmlns:xlink="http://www.w3.org/1999/xlink" x="0px" y="0px"
	 viewBox="0 0 433.6 198" enable-background="new 0 0 433.6 198" xml:space="preserve">
<g>
	<g>
		<g>
			<polygon fill="#FF0579" points="0,0 33.7,57.2 82,57.2 115.4,0 			"/>
		</g>
		<polygon fill="#FF0579" points="154.4,57.2 120,0 25.6,161.3 94.7,161.3 		"/>
	</g>
	<linearGradient id="SVGID_1_" gradientUnits="userSpaceOnUse" x1="277.9022" y1="197.9876" x2="277.9022" y2="14.8042">
		<stop  offset="0" style="stop-color:#FFDC00"/>
		<stop  offset="8.626341e-02" style="stop-color:#FFD206"/>
		<stop  offset="0.2353" style="stop-color:#FFB616"/>
		<stop  offset="0.4292" style="stop-color:#FF882F"/>
		<stop  offset="0.6576" style="stop-color:#FF4A52"/>
		<stop  offset="0.8845" style="stop-color:#FF0579"/>
	</linearGradient>
	<path fill="url(#SVGID_1_)" d="M229.9,86.6h-22.2l-14.9,77.6c-4.4,23.3-22.2,33.8-39.9,33.8h-30.6l17.4-30.8
		c14.5,0,15.3-3.4,18.5-20.6l11.5-60h-22.5l16.8-29.4h11.5l1.7-8.1c5-22.7,21.3-31.9,39.3-31.9h27.4l-6.1,29c0,0-5.4,0-7.3,0
		c-15.1,0-15.7,4.3-17,11h22.2L229.9,86.6z M315,52.6c10.5,0,20.4-8.4,20.4-20.2c0-9.8-7.6-17.6-17.8-17.6c-10.5,0-20.2,8.4-20.2,20
		C297.4,44.7,305,52.6,315,52.6z M433.6,57.2h-37.9L380,84.5l14.2,24.7L380,134l15.7,27.3h37.9l-29.9-52.1L433.6,57.2z M252.9,17.2
		L225,161.3h38l27.9-144.1H252.9z M313.7,57.2h-21l-20.2,104.1h38l15.9-82L313.7,57.2z"/>
	<polygon fill="#FF0579" points="358,57.2 320.1,57.2 350,109.3 320.1,161.3 358,161.3 387.9,109.3 	"/>
</g>
</svg>
